<?xml version="1.0" encoding="iso-8859-1"?>
<!-- Generator: Adobe Illustrator 18.0.0, SVG Export Plug-In . SVG Version: 6.00 Build 0)  -->
<!DOCTYPE svg PUBLIC "-//W3C//DTD SVG 1.1//EN" "http://www.w3.org/Graphics/SVG/1.1/DTD/svg11.dtd">
<svg version="1.1" id="Capa_1" xmlns="http://www.w3.org/2000/svg" xmlns:xlink="http://www.w3.org/1999/xlink" x="0px" y="0px"
	 viewBox="0 0 153.665 153.665" style="enable-background:new 0 0 153.665 153.665;" xml:space="preserve">
<g>
	<path style="fill:#1D1D1B;" d="M131.393,51.751c-2.93-2.928-7.678-2.928-10.607,0c-2.929,2.93-2.929,7.678,0,10.607
		c7.981,7.98,7.981,20.967,0,28.947c-2.929,2.93-2.929,7.678,0,10.607c1.465,1.464,3.385,2.196,5.304,2.196s3.839-0.732,5.304-2.196
		C145.222,88.083,145.222,65.581,131.393,51.751z"/>
	<path style="fill:#1D1D1B;" d="M96.862,0.684c-2.661-1.223-5.795-0.783-8.018,1.127L41.186,42.765H19.4c-4.143,0-7.5,3.357-7.5,7.5
		v53.134c0,4.143,3.357,7.5,7.5,7.5h21.786l47.658,40.954c1.387,1.192,3.128,1.812,4.889,1.812c1.061,0,2.128-0.225,3.129-0.685
		c2.663-1.223,4.37-3.885,4.37-6.815V7.5C101.232,4.569,99.525,1.907,96.862,0.684z M26.9,57.765h9.566v38.134H26.9V57.765z
		 M86.232,129.831L51.466,99.956V53.709l34.766-29.875V129.831z"/>
</g>
<g>
</g>
<g>
</g>
<g>
</g>
<g>
</g>
<g>
</g>
<g>
</g>
<g>
</g>
<g>
</g>
<g>
</g>
<g>
</g>
<g>
</g>
<g>
</g>
<g>
</g>
<g>
</g>
<g>
</g>
</svg>
