<svg width="18" height="18" viewBox="0 0 18 18" fill="none" xmlns="http://www.w3.org/2000/svg">
<path d="M17.78 16.7198L12.6613 11.601C13.6529 10.3763 14.2498 8.82 14.2498 7.12501C14.2498 3.19651 11.0534 0 7.1249 0C3.19644 0 0 3.19648 0 7.12498C0 11.0535 3.19648 14.25 7.12493 14.25C8.8199 14.25 10.3761 13.653 11.6009 12.6615L16.7196 17.7802C16.8658 17.9265 17.0578 18 17.2498 18C17.4418 18 17.6338 17.9265 17.7801 17.7802C18.0733 17.487 18.0733 17.013 17.78 16.7198ZM7.12493 12.75C4.02296 12.75 1.5 10.227 1.5 7.12498C1.5 4.02296 4.02296 1.49998 7.12493 1.49998C10.2269 1.49998 12.7499 4.02296 12.7499 7.12498C12.7499 10.227 10.2269 12.75 7.12493 12.75Z" fill="#333333"/>
</svg>
