<svg width="23" height="23" viewBox="0 0 23 23" fill="none" xmlns="http://www.w3.org/2000/svg">
<path d="M20.2239 18.3036C20.1563 18.2597 19.6475 17.9032 19.138 16.8249C18.2023 14.8446 18.0059 12.0551 18.0059 10.0636C18.0059 10.055 18.0057 10.0464 18.0054 10.0377C17.9952 7.40582 16.4192 5.137 14.1639 4.11902V2.56216C14.1639 1.14937 13.0165 0 11.606 0H11.394C9.98356 0 8.83607 1.14937 8.83607 2.56216V4.11893C6.57327 5.14019 4.99413 7.4206 4.99413 10.0636C4.99413 12.0551 4.79773 14.8446 3.86205 16.8249C3.35259 17.9032 2.84376 18.2596 2.77611 18.3036C2.49122 18.4354 2.35075 18.74 2.41629 19.0486C2.48246 19.3603 2.77382 19.5752 3.092 19.5752H8.03103C8.05861 21.4683 9.60365 23 11.5 23C13.3964 23 14.9414 21.4683 14.969 19.5752H19.9081C20.2262 19.5752 20.5176 19.3603 20.5838 19.0486C20.6492 18.74 20.5088 18.4354 20.2239 18.3036ZM10.1838 2.56216C10.1838 1.89368 10.7267 1.34986 11.3941 1.34986H11.606C12.2734 1.34986 12.8163 1.89368 12.8163 2.56216V3.68148C12.391 3.59357 11.9507 3.5473 11.4998 3.5473C11.0491 3.5473 10.609 3.59353 10.1838 3.68135V2.56216H10.1838ZM11.5 21.6501C10.3467 21.6501 9.40604 20.724 9.37868 19.5753H13.6213C13.594 20.7239 12.6533 21.6501 11.5 21.6501ZM14.2133 18.2253C14.2132 18.2253 4.62766 18.2253 4.62766 18.2253C4.74423 18.0437 4.86287 17.838 4.98079 17.6055C5.8839 15.8247 6.34183 13.2872 6.34183 10.0636C6.34183 7.21481 8.65571 4.89716 11.4998 4.89716C14.3439 4.89716 16.6578 7.21481 16.6578 10.0659C16.6578 10.0742 16.6579 10.0824 16.6582 10.0907C16.6608 13.3014 17.1187 15.8297 18.0193 17.6055C18.1372 17.838 18.2559 18.0437 18.3724 18.2253H14.2133Z" fill="#DFDFDF"/>
</svg>
