<svg width="29" height="23" viewBox="0 0 29 23" fill="none" xmlns="http://www.w3.org/2000/svg">
<g clip-path="url(#clip0)">
<path d="M16.5082 7.74593C16.0697 7.30767 15.359 7.30767 14.9206 7.74593C14.4822 8.18448 14.4822 8.89514 14.9206 9.33354C16.1152 10.528 16.1152 12.4718 14.9206 13.6662C14.4822 14.1048 14.4822 14.8154 14.9206 15.2538C15.1399 15.473 15.4273 15.5825 15.7145 15.5825C16.0017 15.5825 16.2891 15.473 16.5084 15.2538C18.5781 13.184 18.5781 9.81595 16.5082 7.74593Z" fill="#DFDFDF"/>
<path d="M19.7983 4.45558C19.3597 4.01733 18.649 4.01733 18.2106 4.45558C17.7722 4.89413 17.7722 5.6048 18.2106 6.0432C21.2196 9.05199 21.2196 13.9477 18.2106 16.9564C17.7722 17.3949 17.7722 18.1056 18.2106 18.544C18.4299 18.7631 18.7173 18.8727 19.0045 18.8727C19.2917 18.8727 19.5791 18.7631 19.7984 18.544C23.6823 14.6599 23.6823 8.33998 19.7983 4.45558Z" fill="#DFDFDF"/>
<path d="M13.0054 0.102389C12.6071 -0.0806648 12.138 -0.0148073 11.8053 0.271074L4.67199 6.40092H1.41115C0.791037 6.40092 0.288574 6.90338 0.288574 7.52349V15.4764C0.288574 16.0965 0.791037 16.599 1.41115 16.599H4.67199L11.8053 22.7288C12.0129 22.9072 12.2735 23 12.537 23C12.6958 23 12.8555 22.9663 13.0054 22.8975C13.404 22.7144 13.6595 22.316 13.6595 21.8774V1.12258C13.6595 0.683881 13.404 0.285443 13.0054 0.102389ZM2.53372 8.64606H3.96552V14.3538H2.53372V8.64606ZM11.4143 19.4326L6.21081 14.9611V8.03897L11.4143 3.56739V19.4326Z" fill="#DFDFDF"/>
<path d="M24.4602 1.4681C23.8972 0.843967 22.9849 0.843967 22.4221 1.4681C21.8593 2.09265 21.8593 3.10473 22.4221 3.72908C26.2849 8.014 26.2849 14.9862 22.4221 19.2709C21.8593 19.8955 21.8593 20.9076 22.4221 21.5319C22.7036 21.844 23.0725 22 23.4413 22C23.81 22 24.1789 21.844 24.4604 21.5319C29.4466 16.0004 29.4466 7 24.4602 1.4681Z" fill="#DFDFDF"/>
</g>
<defs>
<clipPath id="clip0">
<rect width="29" height="23" fill="white"/>
</clipPath>
</defs>
</svg>
