<svg width="23" height="23" viewBox="0 0 23 23" fill="none" xmlns="http://www.w3.org/2000/svg">
<path d="M21.5 9H19.628C19.471 8.4875 19.2655 7.9925 19.016 7.521L20.3385 6.1985C20.6215 5.9155 20.7775 5.5385 20.7775 5.137C20.7775 4.736 20.6215 4.359 20.3385 4.076L18.9235 2.661C18.358 2.0955 17.368 2.094 16.8015 2.661L15.479 3.9835C15.008 3.734 14.5125 3.529 14 3.3715V1.5C14 0.673 13.327 0 12.5 0H10.5C9.673 0 9 0.673 9 1.5V3.372C8.4875 3.5295 7.9925 3.7345 7.521 3.984L6.198 2.6615C5.613 2.0765 4.661 2.0765 4.076 2.6615L2.6605 4.0765C2.076 4.6615 2.076 5.6135 2.6605 6.1985L3.983 7.5215C3.7335 7.9925 3.5285 8.488 3.371 9.0005H1.5C0.673 9.0005 0 9.6735 0 10.5005V12.5005C0 13.327 0.673 14 1.5 14H3.372C3.5295 14.5125 3.7345 15.0075 3.984 15.479L2.6615 16.802C2.0765 17.387 2.0765 18.339 2.6615 18.924L4.0765 20.3395C4.6615 20.924 5.6135 20.924 6.1985 20.3395L7.5215 19.017C7.9925 19.2665 8.488 19.4715 9.0005 19.629V21.5C9.0005 22.327 9.6735 23 10.5005 23H12.5005C13.3275 23 14.0005 22.327 14.0005 21.5V19.628C14.513 19.4705 15.0085 19.2655 15.4795 19.016L16.802 20.339C17.369 20.9055 18.359 20.9045 18.924 20.339L20.339 18.924C20.622 18.641 20.778 18.264 20.778 17.863C20.778 17.4615 20.622 17.085 20.339 16.802L19.0165 15.479C19.266 15.008 19.471 14.5125 19.6285 14H21.5C22.327 14 23 13.327 23 12.5V10.5C23 9.673 22.327 9 21.5 9ZM22 12.5C22 12.7755 21.776 13 21.5 13H19.25C19.022 13 18.823 13.1545 18.766 13.375C18.589 14.0575 18.3195 14.709 17.964 15.311C17.8485 15.5075 17.88 15.7575 18.041 15.9185L19.631 17.509C19.725 17.603 19.777 17.7285 19.777 17.863C19.777 17.9975 19.725 18.123 19.631 18.217L18.216 19.632C18.028 19.82 17.6965 19.82 17.508 19.632L15.918 18.042C15.757 17.8805 15.507 17.8495 15.31 17.965C14.709 18.32 14.0575 18.59 13.3745 18.7665C13.1545 18.823 13 19.022 13 19.25V21.5C13 21.7755 12.776 22 12.5 22H10.5C10.2245 22 10 21.7755 10 21.5V19.25C10 19.022 9.8455 18.823 9.625 18.766C8.9425 18.5895 8.291 18.32 7.689 17.9645C7.61 17.9175 7.5225 17.895 7.435 17.895C7.3055 17.895 7.1775 17.945 7.081 18.0415L5.491 19.6315C5.2955 19.8265 4.9785 19.8265 4.783 19.6315L3.368 18.2165C3.1725 18.021 3.1725 17.7035 3.368 17.5085L4.958 15.9185C5.1195 15.757 5.151 15.507 5.035 15.311C4.68 14.709 4.41 14.058 4.2335 13.375C4.177 13.1545 3.978 13 3.75 13H1.5C1.2245 13 1 12.7755 1 12.5V10.5C1 10.2245 1.2245 10 1.5 10H3.75C3.978 10 4.177 9.8455 4.234 9.625C4.4105 8.9425 4.68 8.291 5.0355 7.689C5.1515 7.4925 5.12 7.2425 4.9585 7.0815L3.3685 5.4915C3.1735 5.2965 3.1735 4.979 3.3685 4.7835L4.7835 3.3685C4.979 3.173 5.296 3.1735 5.4915 3.3685L7.0815 4.9585C7.243 5.12 7.4925 5.152 7.689 5.0355C8.291 4.6805 8.942 4.4105 9.625 4.234C9.8455 4.177 10 3.978 10 3.75V1.5C10 1.2245 10.2245 1 10.5 1H12.5C12.776 1 13 1.2245 13 1.5V3.75C13 3.978 13.1545 4.177 13.375 4.234C14.058 4.4105 14.7095 4.6805 15.3105 5.0355C15.5075 5.1515 15.7575 5.1205 15.9185 4.9585L17.5085 3.3685C17.697 3.1795 18.0285 3.18 18.2165 3.3685L19.6315 4.7835C19.7255 4.8775 19.7775 5.0035 19.7775 5.1375C19.7775 5.2715 19.7255 5.3975 19.6315 5.4915L18.0415 7.0815C17.8805 7.243 17.8485 7.493 17.9645 7.689C18.32 8.291 18.5895 8.942 18.7665 9.625C18.823 9.8455 19.022 10 19.25 10H21.5C21.776 10 22 10.2245 22 10.5V12.5Z" fill="#DFDFDF"/>
<path d="M11.5 7C9.019 7 7 9.019 7 11.5C7 13.981 9.019 16 11.5 16C13.9815 16 16 13.981 16 11.5C16 9.019 13.9815 7 11.5 7ZM11.5 15C9.57 15 8 13.43 8 11.5C8 9.57 9.57 8 11.5 8C13.4295 8 15 9.57 15 11.5C15 13.43 13.4295 15 11.5 15Z" fill="#DFDFDF"/>
</svg>
