<svg width="15" height="10" viewBox="0 0 15 10" fill="none" xmlns="http://www.w3.org/2000/svg">
<path d="M14.8443 0.84303C14.7477 0.785802 14.6283 0.783567 14.5298 0.83732L11.0881 2.71654V1.58898C11.0871 0.711815 10.3763 0.000993114 9.49914 0H1.58898C0.711815 0.000993114 0.000993114 0.711815 0 1.58898V7.86298C0.000993114 8.74015 0.711815 9.45097 1.58898 9.45197H9.49914C10.3763 9.45097 11.0871 8.74015 11.0881 7.86298V6.75591L14.5299 8.63513C14.6283 8.68888 14.7479 8.68677 14.8443 8.62954C14.9409 8.57219 15 8.46829 15 8.35619V1.11626C15 1.00404 14.9408 0.900258 14.8443 0.84303ZM10.4523 7.86311C10.4518 8.38946 10.0252 8.81588 9.49889 8.8165H1.58898C1.06263 8.81588 0.636214 8.38946 0.635593 7.86311V1.58898C0.636214 1.06276 1.06263 0.636214 1.58898 0.635593H9.49914C10.0254 0.636214 10.4519 1.06276 10.4525 1.58898L10.4523 7.86311ZM14.3644 7.82065L11.0881 6.0318V3.44064L14.3644 1.65192V7.82065Z" fill="#DFDFDF"/>
</svg>
