<svg width="16" height="14" viewBox="0 0 16 14" fill="none" xmlns="http://www.w3.org/2000/svg">
<path d="M14.7575 13.5H0.257507C0.119507 13.5 0.00750732 13.3883 0.00750732 13.25V3.25C0.00750732 3.11175 0.119507 3 0.257507 3H14.7575C14.8955 3 15.0075 3.11175 15.0075 3.25V13.25C15.0075 13.3883 14.8955 13.5 14.7575 13.5ZM0.507507 13H14.5075V3.5H0.507507V13Z" fill="#DFDFDF"/>
<path d="M13.2575 3.5H1.75751C1.61951 3.5 1.50751 3.38825 1.50751 3.25V1.75C1.50751 1.61175 1.61951 1.5 1.75751 1.5H13.2575C13.3955 1.5 13.5075 1.61175 13.5075 1.75V3.25C13.5075 3.38825 13.3955 3.5 13.2575 3.5ZM2.00751 3H13.0075V2H2.00751V3Z" fill="#DFDFDF"/>
<path d="M11.7575 2H3.25751C3.11951 2 3.00751 1.88825 3.00751 1.75V0.25C3.00751 0.11175 3.11951 0 3.25751 0H11.7575C11.8955 0 12.0075 0.11175 12.0075 0.25V1.75C12.0075 1.88825 11.8955 2 11.7575 2ZM3.50751 1.5H11.5075V0.5H3.50751V1.5Z" fill="#DFDFDF"/>
<path d="M6.26376 10.5155C6.17651 10.5155 6.08926 10.4925 6.00951 10.4468C5.85176 10.356 5.75751 10.1938 5.75751 10.013V6.25251C5.75751 6.07151 5.85176 5.90951 6.00951 5.81876C6.16676 5.72801 6.36251 5.72876 6.51951 5.81951L9.75726 7.70001C9.91401 7.79076 10.0075 7.95276 10.0075 8.13276C10.0075 8.31276 9.91401 8.47451 9.75726 8.56551L6.51951 10.4458C6.43951 10.4923 6.35151 10.5155 6.26376 10.5155ZM6.26826 6.25151L6.25751 10.0128V10.0138L9.50601 8.13301L6.26826 6.25151Z" fill="#DFDFDF"/>
</svg>
