<svg width="16" height="15" viewBox="0 0 16 15" fill="none" xmlns="http://www.w3.org/2000/svg">
<g clip-path="url(#clip0)">
<path d="M14.2291 2.17588C13.4892 1.33641 12.4629 0.874106 11.3391 0.874106C9.7586 0.874106 8.75797 1.81805 8.19687 2.60995C8.0513 2.81543 7.92746 3.02148 7.82349 3.21537C7.71951 3.02148 7.5957 2.81543 7.4501 2.60995C6.889 1.81805 5.88837 0.874106 4.30786 0.874106C3.18409 0.874106 2.15773 1.33644 1.41787 2.17591C0.712168 2.97671 0.323486 4.04921 0.323486 5.19584C0.323486 6.44397 0.810781 7.60486 1.85703 8.84916C2.7921 9.96127 4.13732 11.1076 5.69507 12.435C6.27553 12.9297 6.87579 13.4412 7.51484 14.0003L7.53403 14.0171C7.61688 14.0897 7.72019 14.1259 7.82349 14.1259C7.92679 14.1259 8.03009 14.0896 8.11294 14.0171L8.13213 14.0003C8.77118 13.4412 9.37145 12.9297 9.95199 12.4349C11.5096 11.1076 12.8549 9.9613 13.7899 8.84916C14.8362 7.60483 15.3235 6.44397 15.3235 5.19584C15.3235 4.04921 14.9348 2.97671 14.2291 2.17588ZM9.38188 11.766C8.88148 12.1924 8.3665 12.6313 7.82349 13.1033C7.2805 12.6313 6.76549 12.1925 6.26501 11.766C3.21641 9.16814 1.20239 7.4519 1.20239 5.19584C1.20239 4.26332 1.51309 3.39718 2.07726 2.75702C2.6479 2.10959 3.44006 1.75301 4.30786 1.75301C5.51281 1.75301 6.29173 2.49534 6.73294 3.11807C7.12871 3.67659 7.33522 4.23961 7.40565 4.45574C7.46457 4.63665 7.63323 4.75908 7.82349 4.75908C8.01374 4.75908 8.1824 4.63665 8.24132 4.45574C8.31175 4.23961 8.51826 3.67659 8.91403 3.11804C9.35524 2.49534 10.1342 1.75301 11.3391 1.75301C12.2069 1.75301 12.9991 2.10959 13.5697 2.75702C14.1339 3.39718 14.4446 4.26332 14.4446 5.19584C14.4446 7.4519 12.4306 9.16814 9.38188 11.766Z" fill="#DFDFDF"/>
</g>
<defs>
<clipPath id="clip0">
<rect width="15" height="15" fill="white" transform="translate(0.323486)"/>
</clipPath>
</defs>
</svg>
