<svg width="23" height="23" viewBox="0 0 23 23" fill="none" xmlns="http://www.w3.org/2000/svg">
<g clip-path="url(#clip0)">
<path d="M19.6664 7.74589C19.2279 7.30764 18.5172 7.30764 18.0788 7.74589C17.6404 8.18445 17.6404 8.89511 18.0788 9.33351C19.2734 10.5279 19.2734 12.4718 18.0788 13.6662C17.6404 14.1047 17.6404 14.8154 18.0788 15.2538C18.2981 15.4729 18.5855 15.5825 18.8727 15.5825C19.1599 15.5825 19.4473 15.4729 19.6666 15.2538C21.7363 13.1839 21.7363 9.81592 19.6664 7.74589Z" fill="#DFDFDF"/>
<path d="M14.498 0.102389C14.0998 -0.0806648 13.6307 -0.0148073 13.2979 0.271074L6.16467 6.40092H2.90382C2.28371 6.40092 1.78125 6.90338 1.78125 7.52349V15.4764C1.78125 16.0965 2.28371 16.599 2.90382 16.599H6.16467L13.2979 22.7288C13.5055 22.9072 13.7661 23 14.0297 23C14.1885 23 14.3482 22.9663 14.498 22.8975C14.8966 22.7144 15.1521 22.316 15.1521 21.8774V1.12258C15.1521 0.683881 14.8966 0.285443 14.498 0.102389ZM4.02639 8.64606H5.4582V14.3538H4.02639V8.64606ZM12.907 19.4326L7.70334 14.9611V8.03897L12.907 3.56739V19.4326Z" fill="#DFDFDF"/>
</g>
<defs>
<clipPath id="clip0">
<rect width="23" height="23" fill="white"/>
</clipPath>
</defs>
</svg>
