<svg width="21" height="21" viewBox="0 0 21 21" fill="none" xmlns="http://www.w3.org/2000/svg">
<g clip-path="url(#clip0)">
<path d="M6.78378 11.1459L19.7067 20.8381C19.949 21.0222 20.2786 21.0513 20.5516 20.914C20.8262 20.7767 20.999 20.4972 20.999 20.1919L20.999 0.807493C20.999 0.50219 20.8262 0.222731 20.5532 0.0854226C20.4385 0.0288849 20.3141 -0.000190675 20.1913 -0.000190664C20.0201 -0.000190649 19.8489 0.0547334 19.7067 0.161347L6.78378 9.85356C6.58025 10.0054 6.46071 10.2461 6.46071 10.4997C6.46071 10.7533 6.58025 10.994 6.78378 11.1459Z" fill="#DFDFDF"/>
<path d="M0.80778 20.9998L2.42315 20.9998C2.86899 20.9998 3.23083 20.6379 3.23083 20.1921L3.23083 0.807671C3.23083 0.361828 2.86899 -1.52272e-05 2.42315 -1.51882e-05L0.807778 -1.5047e-05C0.361936 -1.5008e-05 9.35632e-05 0.361828 9.36022e-05 0.807671L9.52968e-05 20.1921C9.53358e-05 20.6379 0.361938 20.9998 0.80778 20.9998Z" fill="#DFDFDF"/>
</g>
<defs>
<clipPath id="clip0">
<rect width="21" height="21" fill="white" transform="translate(21 21) rotate(180)"/>
</clipPath>
</defs>
</svg>
