<svg width="15" height="15" viewBox="0 0 15 15" fill="none" xmlns="http://www.w3.org/2000/svg">
<path d="M14.5972 6.52428C14.5967 6.52393 14.5964 6.52348 14.596 6.52313L8.47659 0.404549C8.21576 0.143623 7.86897 0 7.50009 0C7.13121 0 6.78441 0.143623 6.52346 0.404549L0.407237 6.52004C0.405177 6.5221 0.403003 6.52428 0.401057 6.52634C-0.134581 7.06501 -0.133665 7.939 0.403689 8.4763C0.64919 8.72189 0.973319 8.86402 1.32 8.87901C1.33419 8.88039 1.34838 8.88107 1.36269 8.88107H1.60647V13.3839C1.60647 14.275 2.33164 15 3.22288 15H5.617C5.85975 15 6.0565 14.8032 6.0565 14.5605V11.0303C6.0565 10.6237 6.38738 10.2929 6.79403 10.2929H8.20614C8.61279 10.2929 8.94356 10.6237 8.94356 11.0303V14.5605C8.94356 14.8032 9.1403 15 9.38306 15H11.7772C12.6685 15 13.3936 14.275 13.3936 13.3839V8.88107H13.6197C13.9885 8.88107 14.3353 8.73745 14.5964 8.47641C15.1343 7.93831 15.1345 7.06272 14.5972 6.52428ZM13.9748 7.855C13.8799 7.94987 13.7538 8.00217 13.6197 8.00217H12.9541C12.7113 8.00217 12.5146 8.19889 12.5146 8.44162V13.3839C12.5146 13.7904 12.1838 14.1211 11.7772 14.1211H9.82256V11.0303C9.82256 10.1391 9.0975 9.41402 8.20614 9.41402H6.79403C5.90267 9.41402 5.1775 10.1391 5.1775 11.0303V14.1211H3.22288C2.81635 14.1211 2.48547 13.7904 2.48547 13.3839V8.44162C2.48547 8.19889 2.28872 8.00217 2.04597 8.00217H1.39176C1.38489 8.00171 1.37814 8.00137 1.37116 8.00125C1.24022 7.99896 1.11741 7.94701 1.0254 7.85488C0.829681 7.65919 0.829681 7.3407 1.0254 7.14489C1.02551 7.14489 1.02551 7.14478 1.02562 7.14466L1.02597 7.14432L7.14517 1.02596C7.23994 0.931091 7.36595 0.878906 7.50009 0.878906C7.63411 0.878906 7.76012 0.931091 7.855 1.02596L13.9728 7.14306C13.9737 7.14397 13.9748 7.14489 13.9757 7.14581C14.1704 7.34184 14.17 7.65965 13.9748 7.855Z" fill="#595959"/>
</svg>
