<svg width="15" height="13" viewBox="0 0 15 13" fill="none" xmlns="http://www.w3.org/2000/svg">
<path d="M12.5904 1.98878H9.03678C8.17332 1.98878 7.46883 1.28741 7.46883 0.420823C7.46883 0.187032 7.2818 0 7.04801 0H2.4096C1.08167 0 0 1.08167 0 2.4096V10.4676C0 11.7955 1.08167 12.8772 2.4096 12.8772H12.5904C13.9183 12.8772 15 11.7955 15 10.4676V4.39526C15 3.06733 13.9183 1.98878 12.5904 1.98878ZM14.1584 10.4645C14.1584 11.3279 13.457 12.0324 12.5904 12.0324H2.4096C1.54613 12.0324 0.841646 11.3311 0.841646 10.4645V2.4096C0.841646 1.54614 1.54302 0.841646 2.4096 0.841646H6.66459C6.86409 1.97008 7.85224 2.83043 9.03678 2.83043H12.5904C13.4539 2.83043 14.1584 3.5318 14.1584 4.39838V10.4645Z" fill="#595959"/>
</svg>
