<svg width="15" height="15" viewBox="0 0 15 15" fill="none" xmlns="http://www.w3.org/2000/svg">
<path d="M13.9056 2.17588C13.1658 1.3364 12.1394 0.8741 11.0156 0.8741C9.43512 0.8741 8.43448 1.81805 7.87339 2.60994C7.72781 2.81543 7.60397 3.02147 7.5 3.21536C7.39603 3.02147 7.27222 2.81543 7.12661 2.60994C6.56552 1.81805 5.56488 0.8741 3.98438 0.8741C2.86061 0.8741 1.83425 1.33643 1.09438 2.17591C0.388682 2.97671 0 4.04921 0 5.19583C0 6.44396 0.487295 7.60485 1.53354 8.84915C2.46861 9.96126 3.81384 11.1076 5.37158 12.435C5.95204 12.9296 6.5523 13.4412 7.19136 14.0003L7.21055 14.0171C7.2934 14.0897 7.3967 14.1259 7.5 14.1259C7.6033 14.1259 7.7066 14.0896 7.78945 14.0171L7.80864 14.0003C8.4477 13.4412 9.04796 12.9297 9.62851 12.4349C11.1862 11.1076 12.5314 9.96129 13.4665 8.84915C14.5127 7.60482 15 6.44396 15 5.19583C15 4.04921 14.6113 2.97671 13.9056 2.17588ZM9.05839 11.766C8.558 12.1924 8.04302 12.6313 7.5 13.1033C6.95701 12.6313 6.442 12.1925 5.94152 11.766C2.89292 9.16813 0.878906 7.45189 0.878906 5.19583C0.878906 4.26331 1.1896 3.39718 1.75377 2.75701C2.32441 2.10958 3.11657 1.75301 3.98438 1.75301C5.18933 1.75301 5.96824 2.49533 6.40945 3.11806C6.80522 3.67658 7.01174 4.23961 7.08217 4.45573C7.14108 4.63664 7.30975 4.75907 7.5 4.75907C7.69025 4.75907 7.85892 4.63664 7.91783 4.45573C7.98826 4.23961 8.19478 3.67658 8.59055 3.11804C9.03176 2.49533 9.81067 1.75301 11.0156 1.75301C11.8834 1.75301 12.6756 2.10958 13.2462 2.75701C13.8104 3.39718 14.1211 4.26331 14.1211 5.19583C14.1211 7.45189 12.1071 9.16813 9.05839 11.766Z" fill="#BEBFC3"/>
</svg>
