<svg width="32" height="32" viewBox="0 0 32 32" fill="none" xmlns="http://www.w3.org/2000/svg">
<path d="M0.999974 10H30.9999C31.552 10 31.9999 9.55198 31.9999 9.00004C31.9999 8.44801 31.5519 8.00006 30.9999 8.00006H0.999974C0.447952 8.00006 0 8.4481 0 9.00004C0 9.55198 0.448035 10 0.999974 10Z" fill="#BEBFC3"/>
<path d="M30.9999 15.0001H0.999974C0.447952 15.0001 0 15.4481 0 16C0 16.552 0.448035 17 0.999974 17H30.9999C31.552 17 31.9999 16.552 31.9999 16C31.9999 15.4481 31.552 15.0001 30.9999 15.0001Z" fill="#BEBFC3"/>
<path d="M31 22H11C10.448 22 10 22.448 10 23C10 23.552 10.448 23.9999 11 23.9999H31C31.552 23.9999 31.9999 23.5519 31.9999 23C32 22.448 31.552 22 31 22Z" fill="#BEBFC3"/>
</svg>
