<svg width="40" height="40" viewBox="0 0 40 40" fill="none" xmlns="http://www.w3.org/2000/svg">
<circle cx="20" cy="20" r="20" fill="#E21C5E"/>
<path d="M17.8023 26.4928C17.8023 27.8774 16.6797 29 15.2952 29C13.9106 29 12.788 27.8774 12.788 26.4928V13.5072C12.788 12.1226 13.9106 11 15.2952 11C16.6797 11 17.8023 12.1226 17.8023 13.5072V26.4928Z" fill="white"/>
<path d="M27.2116 26.4928C27.2116 27.8774 26.089 29 24.7045 29C23.3199 29 22.1973 27.8774 22.1973 26.4928V13.5072C22.1977 12.1226 23.3202 11 24.7045 11C26.089 11 27.2116 12.1226 27.2116 13.5072V26.4928Z" fill="white"/>
</svg>
