<svg width="40" height="40" viewBox="0 0 40 40" fill="none" xmlns="http://www.w3.org/2000/svg">
<path d="M20 40C31.0457 40 40 31.0457 40 20C40 8.9543 31.0457 0 20 0C8.9543 0 0 8.9543 0 20C0 31.0457 8.9543 40 20 40Z" fill="#E21C5E"/>
<path d="M29.9399 20.7451C29.8845 20.634 29.7945 20.544 29.6834 20.4886L14.8268 13.0603C14.5445 12.9193 14.2013 13.0338 14.0603 13.3161C14.0206 13.3955 14 13.483 14 13.5718V28.4283C13.9999 28.7439 14.2556 28.9998 14.5711 29C14.6599 29 14.7475 28.9794 14.8268 28.9397L29.6834 21.5114C29.9658 21.3706 30.0807 21.0276 29.9399 20.7451Z" fill="white"/>
</svg>
