<svg width="21" height="21" viewBox="0 0 21 21" fill="none" xmlns="http://www.w3.org/2000/svg">
<path d="M2.86355 10.5H0L3.81839 14.3184L7.63711 10.5H4.77356C4.78275 7.34113 7.34114 4.78242 10.5 4.7729C11.4299 4.79062 12.3437 5.01899 13.1726 5.44129L14.6039 4.01001C13.3547 3.28715 11.9428 2.89274 10.5 2.8642C6.28753 2.87568 2.87536 6.28752 2.86355 10.5ZM16.2264 10.5C16.2172 13.6589 13.6589 16.2176 10.5 16.2271C9.57009 16.2094 8.65627 15.981 7.82742 15.5587L6.39614 16.99C7.64531 17.7128 9.05723 18.1072 10.5 18.1358C14.7121 18.1236 18.124 14.7121 18.1365 10.5H21L17.1816 6.6816L13.3629 10.5H16.2264Z" fill="#E21C5E"/>
</svg>
