<svg width="8" height="13" viewBox="0 0 8 13" fill="none" xmlns="http://www.w3.org/2000/svg">
<path d="M6.94828 6.27586C6.82455 6.27586 6.72414 6.37605 6.72414 6.5V7.84483C6.72414 9.57517 5.31655 10.9828 3.58621 10.9828C1.85586 10.9828 0.448276 9.57517 0.448276 7.84483V6.5C0.448276 6.37605 0.347862 6.27586 0.224138 6.27586C0.100414 6.27586 0 6.37605 0 6.5V7.84483C0 9.74664 1.48917 11.3031 3.36207 11.4196V12.5517H2.24138C2.11766 12.5517 2.01724 12.6519 2.01724 12.7759C2.01724 12.8998 2.11766 13 2.24138 13H4.93103C5.05476 13 5.15517 12.8998 5.15517 12.7759C5.15517 12.6519 5.05476 12.5517 4.93103 12.5517H3.81034V11.4196C5.68324 11.3031 7.17241 9.74641 7.17241 7.84483V6.5C7.17241 6.37605 7.072 6.27586 6.94828 6.27586Z" fill="#595959"/>
<path d="M3.58618 10.3103C4.94558 10.3103 6.0517 9.20422 6.0517 7.84483V2.46552C6.0517 1.10612 4.94558 0 3.58618 0C2.22679 0 1.12067 1.10612 1.12067 2.46552V7.84483C1.12067 9.20422 2.22679 10.3103 3.58618 10.3103ZM1.56894 2.46552C1.56894 1.35312 2.47401 0.448276 3.58618 0.448276C4.69836 0.448276 5.60343 1.35312 5.60343 2.46552V7.84483C5.60343 8.95722 4.69836 9.86207 3.58618 9.86207C2.47401 9.86207 1.56894 8.95722 1.56894 7.84483V2.46552Z" fill="#595959"/>
</svg>
