<svg width="23" height="23" viewBox="0 0 23 23" fill="none" xmlns="http://www.w3.org/2000/svg">
<path d="M20.2238 18.3036C20.1562 18.2597 19.6474 17.9032 19.1379 16.8249C18.2022 14.8446 18.0058 12.0551 18.0058 10.0636C18.0058 10.055 18.0056 10.0464 18.0053 10.0377C17.9951 7.40582 16.4191 5.137 14.1639 4.11902V2.56216C14.1639 1.14937 13.0164 0 11.6059 0H11.394C9.98349 0 8.83601 1.14937 8.83601 2.56216V4.11893C6.57321 5.14019 4.99407 7.4206 4.99407 10.0636C4.99407 12.0551 4.79767 14.8446 3.86199 16.8249C3.35253 17.9032 2.8437 18.2596 2.77605 18.3036C2.49116 18.4354 2.35068 18.74 2.41623 19.0486C2.4824 19.3603 2.77376 19.5752 3.09194 19.5752H8.03097C8.05855 21.4683 9.60359 23 11.5 23C13.3963 23 14.9414 21.4683 14.969 19.5752H19.908C20.2261 19.5752 20.5175 19.3603 20.5837 19.0486C20.6492 18.74 20.5087 18.4354 20.2238 18.3036ZM10.1837 2.56216C10.1837 1.89368 10.7266 1.34986 11.394 1.34986H11.606C12.2733 1.34986 12.8163 1.89368 12.8163 2.56216V3.68148C12.3909 3.59357 11.9507 3.5473 11.4998 3.5473C11.049 3.5473 10.6089 3.59353 10.1838 3.68135V2.56216H10.1837ZM11.5 21.6501C10.3467 21.6501 9.40598 20.724 9.37862 19.5753H13.6213C13.594 20.7239 12.6532 21.6501 11.5 21.6501ZM14.2132 18.2253C14.2131 18.2253 4.62759 18.2253 4.62759 18.2253C4.74417 18.0437 4.86281 17.838 4.98073 17.6055C5.88383 15.8247 6.34177 13.2872 6.34177 10.0636C6.34177 7.21481 8.65565 4.89716 11.4997 4.89716C14.3438 4.89716 16.6577 7.21481 16.6577 10.0659C16.6577 10.0742 16.6579 10.0824 16.6582 10.0907C16.6607 13.3014 17.1186 15.8297 18.0192 17.6055C18.1371 17.838 18.2558 18.0437 18.3723 18.2253H14.2132Z" fill="#515151"/>
</svg>
