<svg width="26" height="21" viewBox="0 0 26 21" fill="none" xmlns="http://www.w3.org/2000/svg">
<g clip-path="url(#clip0)">
<path d="M11.8745 0.0934804C11.5108 -0.0736559 11.0825 -0.0135251 10.7787 0.247497L4.26574 5.84431H1.28845C0.72226 5.84431 0.263489 6.30308 0.263489 6.86927V14.1306C0.263489 14.6968 0.72226 15.1556 1.28845 15.1556H4.26574L10.7787 20.7524C10.9683 20.9153 11.2062 21 11.4469 21C11.5919 21 11.7377 20.9693 11.8745 20.9064C12.2384 20.7393 12.4717 20.3755 12.4717 19.975V1.02496C12.4717 0.624408 12.2384 0.260617 11.8745 0.0934804ZM2.3134 7.89422H3.6207V13.1057H2.3134V7.89422V7.89422ZM10.4218 17.7428L5.67075 13.6601V7.33993L10.4218 3.25718V17.7428Z" fill="#ABABAB"/>
</g>
<path d="M21.0578 10.5582L24.8063 6.80969C25.2203 6.39567 25.2203 5.72454 24.8063 5.31052C24.3923 4.89649 23.7211 4.89649 23.3071 5.31052L19.5586 9.05899L15.8102 5.31052C15.3961 4.89649 14.725 4.89649 14.311 5.31052C13.897 5.72454 13.897 6.39567 14.311 6.80969L18.0595 10.5582L14.311 14.3066C13.8964 14.7207 13.8964 15.3923 14.3105 15.8058C14.5177 16.0131 14.7886 16.1165 15.06 16.1165C15.3315 16.1165 15.6024 16.0131 15.8096 15.8058L19.5581 12.0573L23.3066 15.8058C23.5138 16.0131 23.7847 16.1165 24.0562 16.1165C24.3276 16.1165 24.5985 16.0131 24.8057 15.8058C25.2198 15.3918 25.2198 14.7207 24.8057 14.3066L21.0578 10.5582Z" fill="#ABABAB"/>
<defs>
<clipPath id="clip0">
<rect width="21" height="21" fill="white"/>
</clipPath>
</defs>
</svg>
