<svg width="21" height="21" viewBox="0 0 21 21" fill="none" xmlns="http://www.w3.org/2000/svg">
<g clip-path="url(#clip0)">
<path d="M14.2162 9.85414L1.29326 0.161931C1.05095 -0.0222212 0.721416 -0.0512979 0.448418 0.0860085C0.173806 0.223315 0.000961304 0.502774 0.000961304 0.808078V20.1925C0.000961304 20.4978 0.173806 20.7773 0.446803 20.9146C0.561494 20.9711 0.685878 21.0002 0.808645 21.0002C0.979875 21.0002 1.1511 20.9453 1.29326 20.8387L14.2162 11.1464C14.4197 10.9946 14.5393 10.7539 14.5393 10.5003C14.5393 10.2467 14.4197 10.006 14.2162 9.85414Z" fill="#ABABAB"/>
<path d="M20.1922 0.000213623H18.5768C18.131 0.000213623 17.7692 0.362056 17.7692 0.807898V20.1923C17.7692 20.6382 18.131 21 18.5768 21H20.1922C20.6381 21 20.9999 20.6382 20.9999 20.1923V0.807898C20.9999 0.362056 20.6381 0.000213623 20.1922 0.000213623Z" fill="#ABABAB"/>
</g>
<defs>
<clipPath id="clip0">
<rect width="21" height="21" fill="white"/>
</clipPath>
</defs>
</svg>
