<svg width="41" height="41" viewBox="0 0 41 41" fill="none" xmlns="http://www.w3.org/2000/svg">
<circle cx="20.5" cy="20.5" r="20" fill="white" stroke="#F7F7F7"/>
<g clip-path="url(#clip0)">
<path d="M23.3694 27.8967H18.6306V33.2041H23.3694V27.8967Z" fill="#FDCC9B"/>
<path d="M18.6307 28.5217C18.6307 28.5217 20.6241 29.7911 23.3696 29.497V27.8965H18.6307V28.5217Z" fill="#FCBC85"/>
<path d="M11.7974 22.3049C13.0744 22.3049 14.1096 21.1238 14.1096 19.6668C14.1096 18.2098 13.0744 17.0287 11.7974 17.0287C10.5203 17.0287 9.48511 18.2098 9.48511 19.6668C9.48511 21.1238 10.5203 22.3049 11.7974 22.3049Z" fill="#FCBC85"/>
<path d="M30.2027 22.3049C31.4797 22.3049 32.515 21.1238 32.515 19.6668C32.515 18.2098 31.4797 17.0287 30.2027 17.0287C28.9257 17.0287 27.8904 18.2098 27.8904 19.6668C27.8904 21.1238 28.9257 22.3049 30.2027 22.3049Z" fill="#FCBC85"/>
<path d="M30.1933 14.6279C30.1933 10.7422 27.35 7.89877 21 7.89877C14.65 7.89877 11.8067 10.7421 11.8067 14.6279C11.8067 18.5138 11.1433 28.7497 21 28.7497C30.8567 28.7497 30.1933 18.5138 30.1933 14.6279Z" fill="#FDCC9B"/>
<path d="M16.5221 20.125C17.0718 20.125 17.5173 19.637 17.5173 19.035C17.5173 18.433 17.0718 17.945 16.5221 17.945C15.9725 17.945 15.527 18.433 15.527 19.035C15.527 19.637 15.9725 20.125 16.5221 20.125Z" fill="#3B2519"/>
<path d="M16.0883 18.8514C16.2527 18.8514 16.3859 18.7181 16.3859 18.5538C16.3859 18.3894 16.2527 18.2562 16.0883 18.2562C15.9239 18.2562 15.7907 18.3894 15.7907 18.5538C15.7907 18.7181 15.9239 18.8514 16.0883 18.8514Z" fill="white"/>
<path d="M14.9302 16.3339C15.4007 16.5692 16.1564 15.5343 17.886 16.4346C18.2013 16.5987 18.3895 15.0308 16.5355 15.0308C14.9302 15.0308 14.6458 16.1918 14.9302 16.3339Z" fill="#51362A"/>
<path d="M25.6006 20.125C26.1502 20.125 26.5958 19.637 26.5958 19.035C26.5958 18.433 26.1502 17.945 25.6006 17.945C25.051 17.945 24.6055 18.433 24.6055 19.035C24.6055 19.637 25.051 20.125 25.6006 20.125Z" fill="#3B2519"/>
<path d="M25.1669 18.8514C25.3312 18.8514 25.4645 18.7181 25.4645 18.5538C25.4645 18.3894 25.3312 18.2562 25.1669 18.2562C25.0025 18.2562 24.8693 18.3894 24.8693 18.5538C24.8693 18.7181 25.0025 18.8514 25.1669 18.8514Z" fill="white"/>
<path d="M27.0699 16.3339C26.5993 16.5692 25.8437 15.5343 24.1141 16.4346C23.7987 16.5987 23.6106 15.0308 25.4647 15.0308C27.0699 15.0308 27.3541 16.1918 27.0699 16.3339Z" fill="#51362A"/>
<path d="M21 22.8688C20.0166 22.8688 19.4243 22.1343 19.4243 22.4896C19.4243 22.8451 19.7087 23.5204 21 23.5204C22.2913 23.5204 22.5757 22.8451 22.5757 22.4896C22.5757 22.1341 21.9832 22.8688 21 22.8688Z" fill="#FCBC85"/>
<path d="M21.0001 26.1366C20.6599 26.1366 20.455 25.8825 20.455 26.0055C20.455 26.1285 20.5534 26.3619 21.0001 26.3619C21.4468 26.3619 21.545 26.1285 21.545 26.0055C21.545 25.8825 21.3401 26.1366 21.0001 26.1366Z" fill="#FCBC85"/>
<path d="M20.9999 25.231C19.4413 25.231 18.5023 24.5963 18.5023 24.7572C18.5023 24.9181 18.953 25.5511 20.9999 25.5511C23.0468 25.5511 23.4976 24.9181 23.4976 24.7572C23.4974 24.5963 22.5585 25.231 20.9999 25.231Z" fill="#F7945E"/>
<path d="M21 30.029V36H9.48511C9.48511 33.5831 15.5504 30.029 21 30.029Z" fill="#F7941E"/>
<path d="M21 30.029V36H32.5149C32.5149 33.5831 26.4496 30.029 21 30.029Z" fill="#F7941E"/>
<path d="M21 30.029C19.8409 30.029 18.6541 30.191 17.5035 30.4675C17.5112 30.4777 18.7796 32.1141 21 32.1141C23.0561 32.1141 24.423 30.7127 24.6212 30.4972C23.4317 30.202 22.201 30.029 21 30.029Z" fill="#F36C21"/>
<path d="M18.6306 30.2357C18.6306 30.2357 19.3236 31.0953 20.9999 31.0953C22.6762 31.0953 23.3694 30.2357 23.3694 30.2357C23.3694 30.2357 20.9112 29.3408 18.6306 30.2357Z" fill="#FDCC9B"/>
<path d="M28.5583 7.06965C28.5583 7.06965 25.1464 2.73368 18.055 4.36853C10.9638 6.00323 10.4324 10.2683 10.6457 14.4177C10.859 18.5673 11.4276 21.0016 12.1002 20.7008C12.7728 20.3998 12.4228 17.6608 12.4939 17.0287C12.5649 16.3966 13.2046 13.538 17.5176 13.9645C21.8303 14.3911 25.4647 12.8272 25.4647 12.8272C25.4647 12.8272 26.9277 14.6764 27.8904 15.0308C29.8143 15.7387 29.1834 20.4588 29.9372 20.4588C30.691 20.4588 34.3871 9.55748 28.5583 7.06965Z" fill="#51362A"/>
</g>
<defs>
<clipPath id="clip0">
<rect width="32" height="32" fill="white" transform="translate(5 4)"/>
</clipPath>
</defs>
</svg>
