<svg id="Layer_1" enable-background="new 0 0 60 54" height="512" viewBox="0 0 60 54" width="512" xmlns="http://www.w3.org/2000/svg"><path d="m59.03 54h-58c-.552 0-1-.447-1-1v-40c0-.553.448-1 1-1h58c.552 0 1 .447 1 1v40c0 .553-.448 1-1 1zm-57-2h56v-38h-56z"/><path d="m53.03 14h-46c-.552 0-1-.447-1-1v-6c0-.553.448-1 1-1h46c.552 0 1 .447 1 1v6c0 .553-.448 1-1 1zm-45-2h44v-4h-44z"/><path d="m47.03 8h-34c-.552 0-1-.447-1-1v-6c0-.553.448-1 1-1h34c.552 0 1 .447 1 1v6c0 .553-.448 1-1 1zm-33-2h32v-4h-32z"/><path d="m25.055 42.062c-.349 0-.698-.092-1.017-.275-.631-.363-1.008-1.012-1.008-1.735v-15.042c0-.724.377-1.372 1.008-1.735.629-.363 1.412-.36 2.04.003l12.951 7.522c.627.363 1.001 1.011 1.001 1.731s-.374 1.367-1.001 1.731l-12.951 7.521c-.32.186-.672.279-1.023.279zm.018-17.056-.043 15.045v.004l12.994-7.523z"/></svg>