<?xml version="1.0" encoding="iso-8859-1"?>
<!-- Generator: Adobe Illustrator 19.0.0, SVG Export Plug-In . SVG Version: 6.00 Build 0)  -->
<svg version="1.1" id="Capa_1" xmlns="http://www.w3.org/2000/svg" xmlns:xlink="http://www.w3.org/1999/xlink" x="0px" y="0px"
	 viewBox="0 0 383.998 383.998" style="enable-background:new 0 0 383.998 383.998;" xml:space="preserve">
<g>
	<g>
		<path d="M183.328,57.778c-5.312-2.744-11.736-2.296-16.608,1.192L58.608,136.002H16c-8.832,0-16,7.168-16,16v80
			c0,8.832,7.168,16,16,16h42.608l108.104,77.032c2.768,1.968,6.024,2.968,9.288,2.968c2.504,0,5.024-0.584,7.328-1.776
			c5.328-2.744,8.672-8.232,8.672-14.224v-240C192,66.01,188.656,60.522,183.328,57.778z M56,216.002H32v-48h24V216.002z
			 M160,280.954L88,229.65v-75.296l72-51.304V280.954z"/>
	</g>
</g>
<g>
	<g>
		<path d="M322.744,192.002l56.568-56.568c6.248-6.248,6.248-16.376,0-22.624s-16.376-6.248-22.624,0l-56.568,56.568l-56.568-56.568
			c-6.248-6.248-16.376-6.248-22.624,0c-6.248,6.248-6.248,16.376,0,22.624l56.568,56.568l-56.568,56.568
			c-6.256,6.248-6.256,16.384-0.008,22.624c3.128,3.128,7.216,4.688,11.312,4.688s8.184-1.56,11.312-4.688l56.568-56.568
			l56.568,56.568c3.128,3.128,7.216,4.688,11.312,4.688s8.184-1.56,11.312-4.688c6.248-6.248,6.248-16.376,0-22.624L322.744,192.002
			z"/>
	</g>
</g>
<g>
</g>
<g>
</g>
<g>
</g>
<g>
</g>
<g>
</g>
<g>
</g>
<g>
</g>
<g>
</g>
<g>
</g>
<g>
</g>
<g>
</g>
<g>
</g>
<g>
</g>
<g>
</g>
<g>
</g>
</svg>
